<svg width="34" height="34" viewBox="0 0 34 34" fill="none" xmlns="http://www.w3.org/2000/svg">
<g clip-path="url(#clip0_1_142)">
<path d="M16.4986 10.4321L16.4986 16.25L10.6807 16.25L10.6807 17.75L16.4986 17.75L16.4986 23.5679L17.9986 23.5679L17.9986 17.75L23.8165 17.75L23.8166 16.25H17.9986L17.9986 10.432L16.4986 10.4321Z" fill="white"/>
<path d="M17.0017 5.74998C14.018 5.74998 11.1566 6.93524 9.04676 9.04503C6.93698 11.1548 5.75171 14.0163 5.75171 17C5.75171 19.9837 6.93698 22.8452 9.04676 24.955C11.1566 27.0648 14.018 28.25 17.0017 28.25C19.9854 28.25 22.8469 27.0648 24.9567 24.955C27.0665 22.8452 28.2518 19.9837 28.2518 17C28.2518 14.0163 27.0665 11.1548 24.9567 9.04503C22.8469 6.93524 19.9854 5.74998 17.0017 5.74998ZM23.896 23.8943C20.0945 27.6958 13.9089 27.6958 10.1074 23.8943C6.30594 20.0928 6.30594 13.9072 10.1074 10.1057C13.9089 6.3042 20.0945 6.3042 23.896 10.1057C27.6975 13.9072 27.6975 20.0928 23.896 23.8943Z" fill="white"/>
</g>
<defs>
<clipPath id="clip0_1_142">
<rect width="24" height="24" fill="white" transform="translate(0.03125 17) rotate(-45)"/>
</clipPath>
</defs>
</svg>
