<svg width="24" height="24" viewBox="0 0 24 24" fill="none" xmlns="http://www.w3.org/2000/svg">
<g clip-path="url(#clip0_1_145)">
<path d="M16.2885 7L12.1746 11.1139L8.06069 7L7 8.06064L11.1139 12.1745L7 16.2885L8.06069 17.3491L12.1746 13.2352L16.2885 17.3491L17.3492 16.2885L13.2352 12.1745L17.3492 8.06064L16.2885 7Z" fill="white"/>
<path d="M19.955 4.04506C17.8452 1.93527 14.9837 0.75 12 0.75C9.01633 0.75 6.15484 1.93527 4.04506 4.04506C1.93527 6.15484 0.75 9.01633 0.75 12C0.75 14.9837 1.93527 17.8452 4.04506 19.955C6.15484 22.0648 9.01633 23.25 12 23.25C14.9837 23.25 17.8452 22.0648 19.955 19.955C22.0648 17.8452 23.25 14.9837 23.25 12C23.25 9.01633 22.0648 6.15484 19.955 4.04506ZM12 21.75C6.62388 21.75 2.25002 17.3762 2.25002 12C2.25002 6.62388 6.62388 2.25002 12 2.25002C17.3762 2.25002 21.75 6.62388 21.75 12C21.75 17.3762 17.3762 21.75 12 21.75Z" fill="white"/>
</g>
<defs>
<clipPath id="clip0_1_145">
<rect width="24" height="24" fill="white"/>
</clipPath>
</defs>
</svg>
