<svg width="120" height="40" viewBox="0 0 120 40" fill="none" xmlns="http://www.w3.org/2000/svg">
<g clip-path="url(#clip0_1_411)">
<path d="M102.269 37.4813V39.9994H119.553V28.6421H117.035V37.4813H102.269ZM102.269 0V2.51826H117.035V11.3579H119.553V0H102.269ZM93.3562 19.4816V13.6299H97.3069C99.2331 13.6299 99.9244 14.2717 99.9244 16.0251V17.0619C99.9244 18.8643 99.2575 19.4816 97.3069 19.4816H93.3562ZM99.6275 20.5184C101.43 20.0493 102.689 18.3701 102.689 16.3705C102.689 15.1114 102.195 13.9753 101.257 13.0616C100.072 11.9256 98.4912 11.3579 96.4422 11.3579H90.8869V28.6415H93.3562V21.753H97.06C98.9609 21.753 99.7266 22.5431 99.7266 24.5187V28.6421H102.245V24.9137C102.245 22.1977 101.603 21.1608 99.6275 20.8644V20.5184ZM78.8381 21.0861H86.4431V18.8147H78.8381V13.6293H87.1838V11.3579H76.3194V28.6415H87.5541V26.3701H78.8381V21.0861ZM70.5662 21.9998V23.1849C70.5662 25.6787 69.6525 26.4937 67.3566 26.4937H66.8134C64.5169 26.4937 63.4059 25.7527 63.4059 22.3207V17.6787C63.4059 14.2222 64.5666 13.5057 66.8625 13.5057H67.3559C69.6031 13.5057 70.3191 14.3453 70.3434 16.6663H73.0597C72.8128 13.2588 70.5413 11.1111 67.1338 11.1111C65.4797 11.1111 64.0969 11.6298 63.06 12.617C61.5044 14.074 60.6403 16.5432 60.6403 19.9997C60.6403 23.3331 61.3812 25.8023 62.9119 27.3328C63.9487 28.3451 65.3809 28.8883 66.7884 28.8883C68.2697 28.8883 69.6281 28.2955 70.3191 27.0119H70.6644V28.6415H72.9359V19.7284H66.2447V21.9998H70.5662ZM48.7894 13.6293H51.4809C54.0244 13.6293 55.4072 14.2712 55.4072 17.7283V22.2712C55.4072 25.7277 54.0244 26.3701 51.4809 26.3701H48.7894V13.6293ZM51.7028 28.6421C56.4191 28.6421 58.1716 25.0619 58.1716 20.0003C58.1716 14.8646 56.2953 11.3585 51.6531 11.3585H46.3197V28.6421H51.7028ZM34.3947 21.0861H41.9997V18.8147H34.3947V13.6293H42.74V11.3579H31.8756V28.6415H43.1106V26.3701H34.3947V21.0861ZM19.827 11.3579H17.3087V28.6415H28.6666V26.3701H19.827V11.3579ZM0 28.6421V40H17.2836V37.4813H2.51826V28.6421H0ZM0 0V11.3579H2.51826V2.51826H17.2836V0H0Z" fill="white"/>
</g>
<defs>
<clipPath id="clip0_1_411">
<rect width="119.688" height="40" fill="white"/>
</clipPath>
</defs>
</svg>
